<svg width="100" height="89" viewBox="0 0 100 89" fill="none" xmlns="http://www.w3.org/2000/svg">
<path d="M95.4297 43.583L76.5625 36.5127V15.3213C76.5625 12.3916 74.7461 9.77441 71.9922 8.73926L52.4609 1.41504C50.8789 0.80957 49.1211 0.80957 47.5195 1.41504L27.9883 8.73926C25.2344 9.77441 23.418 12.3916 23.418 15.3213V36.5127L4.55078 43.583C1.81641 44.6182 0 47.2353 0 50.165V71.6689C0 74.3252 1.50391 76.7666 3.88672 77.958L23.418 87.7236C25.3906 88.7197 27.7344 88.7197 29.707 87.7236L50 77.5674L70.293 87.7236C72.2656 88.7197 74.6094 88.7197 76.582 87.7236L96.1133 77.958C98.4961 76.7666 100 74.3252 100 71.6689V50.165C100 47.2353 98.1836 44.6182 95.4297 43.583ZM69.9219 36.6689L53.3203 42.8994V29.5791L69.9219 22.3525V36.6689ZM30.0781 15.0479L50 7.58691L69.9219 15.0479V15.165L50 23.251L30.0781 15.165V15.0479ZM46.4844 71.9033L29.8828 80.2041V64.7549L46.4844 57.1767V71.9033ZM46.4844 50.0283L26.5625 58.1143L6.64062 50.0283V49.9111L26.5625 42.4502L46.4844 49.9111V50.0283ZM93.3594 71.9033L76.7578 80.2041V64.7549L93.3594 57.1767V71.9033ZM93.3594 50.0283L73.4375 58.1143L53.5156 50.0283V49.9111L73.4375 42.4502L93.3594 49.9111V50.0283Z" fill="#2D3192"/>
</svg>
