<svg width="150" height="150" viewBox="0 0 150 150" fill="none" xmlns="http://www.w3.org/2000/svg">
<path d="M148.973 69.2102L123.532 43.7696C122.875 43.1122 121.983 42.7426 121.053 42.7426H102.799V29.3675C102.799 25.8474 99.7548 22.8735 96.1522 22.8735H6.49394C2.91323 22.8735 0 25.7865 0 29.3675V103.753C0 107.334 2.91323 110.247 6.49394 110.247H17.1623C18.7671 119.812 27.1006 127.126 37.1146 127.126C47.1285 127.126 55.4621 119.813 57.0669 110.247H103.497C105.102 119.812 113.436 127.126 123.45 127.126C133.466 127.126 141.801 119.81 143.403 110.242C143.437 110.243 143.471 110.248 143.506 110.248C147.087 110.248 150 107.334 150 103.754V71.6895C150 70.7598 149.63 69.8679 148.973 69.2102ZM119.6 49.7558L138.724 68.8793H102.799V49.7558H119.6ZM17.2156 103.234H7.01322V29.8868L95.7854 29.8871V103.234H57.0135C55.2871 93.8159 47.0243 86.6542 37.1146 86.6542C27.2052 86.6542 18.9421 93.8159 17.2156 103.234ZM37.1146 120.113C29.8236 120.113 23.8919 114.181 23.8919 106.89C23.8919 99.5991 29.8236 93.6674 37.1146 93.6674C44.4056 93.6674 50.3372 99.5991 50.3372 106.89C50.3375 114.181 44.4056 120.113 37.1146 120.113ZM123.45 120.113C116.159 120.113 110.227 114.181 110.227 106.89C110.227 99.5991 116.159 93.6674 123.45 93.6674C130.741 93.6674 136.672 99.5991 136.672 106.89C136.673 114.181 130.741 120.113 123.45 120.113ZM123.45 86.6542C113.54 86.6542 105.277 93.8159 103.551 103.234H102.798V75.8926H142.986V101.625C140.663 93.0118 132.787 86.6542 123.45 86.6542Z" fill="white"/>
</svg>
