<svg width="150" height="150" viewBox="0 0 150 150" fill="none" xmlns="http://www.w3.org/2000/svg">
<path d="M37.3413 0H112.646C114.795 0 116.748 0.878906 118.164 2.28271C119.58 3.69873 120.459 5.65185 120.459 7.80029V39.3311V133.032C120.459 135.181 119.58 137.134 118.164 138.55C116.748 139.966 114.795 140.833 112.646 140.833H106.445V144.287C106.445 147.424 103.882 150 100.745 150C97.6074 150 95.0439 147.437 95.0439 144.287V140.833H55.1758V144.287C55.1758 147.424 52.6123 150 49.4751 150C46.3379 150 43.7744 147.437 43.7744 144.287V140.833H37.3413C35.1929 140.833 33.2397 139.954 31.8237 138.55C30.4199 137.134 29.541 135.181 29.541 133.032V39.3311V7.80029C29.541 5.65185 30.4199 3.69873 31.8237 2.28271C33.2397 0.878906 35.1929 0 37.3413 0ZM76.8433 79.4922C83.96 72.7417 84.6313 77.2949 76.8433 84.6924V92.8467L83.9722 88.7329C86.4624 78.3447 90.7349 76.7334 88.4766 86.1328C95.7275 81.9458 97.522 85.2783 90.3198 89.4287C99.7192 92.2119 96.1304 95.0806 85.8154 92.0288L78.772 96.0937L85.8887 100.195C96.1304 97.168 99.6704 100.049 90.3931 102.795C97.644 106.982 95.6665 110.205 88.4644 106.042C90.7593 115.588 86.4746 113.879 83.96 103.442L76.8433 99.3408V107.532C84.6313 114.929 83.96 119.482 76.8433 112.732C76.8433 121.106 73.0591 121.228 73.0591 112.781C66.0522 119.446 65.3076 114.941 73.0591 107.581V99.3896L66.04 103.442C63.5254 113.879 59.2407 115.588 61.5356 106.042C54.2969 110.229 52.2949 107.019 59.6069 102.795C50.3418 100.049 53.8574 97.1558 64.1113 100.195L71.228 96.0937L64.1846 92.0288C53.8818 95.0806 50.2808 92.2119 59.6802 89.4287C52.4292 85.2417 54.2236 81.9092 61.5234 86.1328C59.2651 76.7212 63.5254 78.3447 66.0278 88.7329L73.0713 92.7978V84.6435C65.3198 77.2827 66.0522 72.7905 73.0713 79.4434C73.0713 71.0693 76.8433 71.1792 76.8433 79.4922ZM42.5049 50.8789C42.5049 49.1699 43.8843 47.7905 45.5933 47.7905C47.3022 47.7905 48.6816 49.1699 48.6816 50.8789V70.6299C48.6816 72.3389 47.3022 73.7183 45.5933 73.7183C43.8843 73.7183 42.5049 72.3389 42.5049 70.6299V50.8789ZM42.5049 13.208C42.5049 11.499 43.8843 10.1196 45.5933 10.1196C47.3022 10.1196 48.6816 11.499 48.6816 13.208V26.2817C48.6816 27.9907 47.3022 29.3701 45.5933 29.3701C43.8843 29.3701 42.5049 27.9907 42.5049 26.2817V13.208ZM35.73 36.2305H114.282V7.80029C114.282 7.36084 114.099 6.9458 113.794 6.65283C113.501 6.35986 113.098 6.16455 112.646 6.16455H37.3413C36.9019 6.16455 36.4868 6.34766 36.1938 6.65283C35.9009 6.9458 35.7056 7.34863 35.7056 7.80029V36.2305H35.73ZM114.27 42.4194H35.73V133.02C35.73 133.459 35.9131 133.874 36.2183 134.167C36.5112 134.46 36.9141 134.656 37.3657 134.656H112.659C113.098 134.656 113.513 134.473 113.806 134.167C114.099 133.874 114.294 133.472 114.294 133.02V42.4194H114.27Z" fill="white"/>
</svg>
