<svg width="180" height="180" viewBox="0 0 180 180" fill="none" xmlns="http://www.w3.org/2000/svg">
<path d="M122.121 72.8799L113.121 63.8801C111.948 62.707 110.052 62.707 108.879 63.8801L78.0003 94.7586L68.1216 84.8799C66.9484 83.7068 65.0525 83.7068 63.8797 84.8799L54.8799 93.8797C53.7067 95.0525 53.7067 96.9488 54.8799 98.1216L75.8793 119.121C76.4643 119.709 77.2325 120 78.0003 120C78.7684 120 79.5362 119.706 80.1212 119.121L122.121 77.1218C123.294 75.949 123.294 74.0531 122.121 72.8799ZM78.0003 112.758L61.2427 96.0007L66.0006 91.2427L75.8793 101.121C77.0525 102.295 78.9484 102.295 80.1212 101.121L111 70.2429L115.758 75.0009L78.0003 112.758Z" fill="white"/>
<path d="M179.302 106.081L165.904 90.0008L179.302 73.921C180.049 73.027 180.208 71.7822 179.716 70.7292C179.221 69.6763 178.162 69.0013 176.998 69.0013H137.6L134.969 50.5788C134.759 49.0998 133.493 48.0019 131.999 48.0019H109.085C105.551 45.0558 91.9194 33.6981 91.9194 33.6981C90.8064 32.7683 89.1924 32.7683 88.0794 33.6981L70.9136 48.0019H47.9999C46.5058 48.0019 45.243 49.0998 45.03 50.576L42.399 69.0017H3.00153C1.83753 69.0017 0.77864 69.6767 0.28365 70.7296C-0.211341 71.7857 -0.0492736 73.0305 0.697782 73.9214L14.0956 90.0012L0.697782 106.081C-0.0492736 106.975 -0.208177 108.22 0.28365 109.273C0.77864 110.329 1.83753 111.001 3.00153 111.001H42.3997C43.2005 116.596 45.0335 129.426 45.0335 129.426C45.2434 130.905 46.5094 132 48.0003 132H70.914L88.0798 146.304C88.6377 146.769 89.3186 147 89.9996 147C90.6806 147 91.3647 146.769 91.9194 146.304L109.082 132C113.744 132 132.005 132.012 131.999 132C133.493 132 134.755 130.903 134.968 129.426C134.968 129.426 136.801 116.596 137.602 111.001H176.998C178.162 111.001 179.221 110.326 179.716 109.273C180.211 108.216 180.049 106.971 179.302 106.081ZM9.40652 105.001L20.3054 91.921C21.2325 90.808 21.2325 89.1912 20.3054 88.081L9.40652 75.001H38.5958L27.6969 88.0806C26.7698 89.1936 26.7698 90.8104 27.6969 91.9207L38.5958 105H9.40652V105.001ZM132.698 106.077C132.551 106.254 132.422 106.449 132.32 106.656C132.11 107.077 132.101 107.095 129.401 126C107.295 126 107.274 126.012 106.659 126.318C106.452 126.423 106.257 126.549 106.08 126.696L90 140.094L73.9202 126.696C73.3833 126.246 72.702 126 72.0003 126H50.6018C47.9019 107.095 47.8927 107.077 47.6828 106.656C47.5777 106.449 47.4519 106.255 47.3049 106.077L33.9071 90.0008L47.3049 73.921C47.6621 73.4921 47.8931 72.976 47.9708 72.4241L50.6018 54.0015H72.0003C72.7024 54.0015 73.3802 53.7554 73.9202 53.3054L90 39.9077C106.344 53.5273 106.356 53.5333 106.659 53.6865C107.076 53.8936 107.535 54.0015 108 54.0015H129.398L132.029 72.4273C132.107 72.9792 132.338 73.4953 132.695 73.9242L146.093 90.0008L132.698 106.077ZM141.404 105.001L152.303 91.921C153.23 90.808 153.23 89.1912 152.303 88.081L141.404 75.0013H170.593L159.694 88.081C158.767 89.194 158.767 90.8108 159.694 91.921L170.593 105.001H141.404Z" fill="white"/>
</svg>
