<svg width="150" height="150" viewBox="0 0 150 150" fill="none" xmlns="http://www.w3.org/2000/svg">
<path fill-rule="evenodd" clip-rule="evenodd" d="M74.9997 9.375C67.2496 9.375 60.9372 15.6874 60.9372 23.4375V95.4849C54.4787 99.9717 50.166 107.35 50.166 115.791C50.166 129.48 61.3113 140.625 74.9997 140.625C88.6881 140.625 99.8334 129.48 99.8334 115.791C99.8334 107.35 95.5207 99.9717 89.0622 95.4849V23.4375C89.0622 15.6874 82.7498 9.375 74.9997 9.375ZM74.9997 14.0625C80.234 14.0625 84.3747 18.2032 84.3747 23.4375V96.5881C84.3746 96.9897 84.4777 97.3846 84.6741 97.7349C84.8705 98.0852 85.1536 98.3791 85.4962 98.5886C91.2836 102.128 95.1459 108.492 95.1459 115.791C95.1459 126.947 86.1554 135.938 74.9997 135.938C63.844 135.938 54.8535 126.947 54.8535 115.791C54.8535 108.492 58.7158 102.128 64.5032 98.5886C64.8458 98.3791 65.1289 98.0852 65.3253 97.7349C65.5217 97.3846 65.6248 96.9897 65.6247 96.5881V23.4375C65.6247 18.2032 69.7654 14.0625 74.9997 14.0625Z" fill="white"/>
<path fill-rule="evenodd" clip-rule="evenodd" d="M75 21.0938C74.3784 21.0938 73.7822 21.3407 73.3427 21.7802C72.9031 22.2198 72.6562 22.8159 72.6562 23.4375V102.635C72.6714 102.705 72.6897 102.773 72.7111 102.841C66.5563 103.933 61.8438 109.335 61.8438 115.791C61.8438 123.029 67.7618 128.943 74.9999 128.943C82.238 128.943 88.156 123.029 88.156 115.791C88.156 109.335 83.4435 103.933 77.2887 102.841C77.3101 102.773 77.3285 102.705 77.3437 102.635V23.4375C77.3437 22.8159 77.0968 22.2198 76.6573 21.7802C76.2177 21.3407 75.6216 21.0938 75 21.0938ZM75 107.323C79.7048 107.323 83.4686 111.087 83.4686 115.791C83.4686 120.496 79.7048 124.255 75 124.255C70.2952 124.255 66.5313 120.496 66.5313 115.791C66.5313 111.087 70.2952 107.323 75 107.323Z" fill="white"/>
<path fill-rule="evenodd" clip-rule="evenodd" d="M46.875 21.0938C46.2534 21.0938 45.6573 21.3407 45.2177 21.7802C44.7782 22.2198 44.5312 22.8159 44.5312 23.4375C44.5312 24.0591 44.7782 24.6552 45.2177 25.0948C45.6573 25.5343 46.2534 25.7812 46.875 25.7812H51.5625C52.1841 25.7812 52.7802 25.5343 53.2198 25.0948C53.6593 24.6552 53.9062 24.0591 53.9062 23.4375C53.9062 22.8159 53.6593 22.2198 53.2198 21.7802C52.7802 21.3407 52.1841 21.0938 51.5625 21.0938H46.875Z" fill="white"/>
<path fill-rule="evenodd" clip-rule="evenodd" d="M39.8438 30.4688C39.2221 30.4688 38.626 30.7157 38.1865 31.1552C37.7469 31.5948 37.5 32.1909 37.5 32.8125C37.5 33.4341 37.7469 34.0302 38.1865 34.4698C38.626 34.9093 39.2221 35.1562 39.8438 35.1562H51.5625C52.1841 35.1562 52.7802 34.9093 53.2198 34.4698C53.6593 34.0302 53.9062 33.4341 53.9062 32.8125C53.9062 32.1909 53.6593 31.5948 53.2198 31.1552C52.7802 30.7157 52.1841 30.4688 51.5625 30.4688H39.8438Z" fill="white"/>
<path fill-rule="evenodd" clip-rule="evenodd" d="M46.875 39.8438C46.2534 39.8438 45.6573 40.0907 45.2177 40.5302C44.7782 40.9698 44.5312 41.5659 44.5312 42.1875C44.5312 42.8091 44.7782 43.4052 45.2177 43.8448C45.6573 44.2843 46.2534 44.5312 46.875 44.5312H51.5625C52.1841 44.5312 52.7802 44.2843 53.2198 43.8448C53.6593 43.4052 53.9062 42.8091 53.9062 42.1875C53.9062 41.5659 53.6593 40.9698 53.2198 40.5302C52.7802 40.0907 52.1841 39.8438 51.5625 39.8438H46.875Z" fill="white"/>
<path fill-rule="evenodd" clip-rule="evenodd" d="M39.8438 49.2188C39.2221 49.2188 38.626 49.4657 38.1865 49.9052C37.7469 50.3448 37.5 50.9409 37.5 51.5625C37.5 52.1841 37.7469 52.7802 38.1865 53.2198C38.626 53.6593 39.2221 53.9062 39.8438 53.9062H51.5625C52.1841 53.9062 52.7802 53.6593 53.2198 53.2198C53.6593 52.7802 53.9062 52.1841 53.9062 51.5625C53.9062 50.9409 53.6593 50.3448 53.2198 49.9052C52.7802 49.4657 52.1841 49.2188 51.5625 49.2188H39.8438Z" fill="white"/>
<path fill-rule="evenodd" clip-rule="evenodd" d="M46.875 58.5938C46.2534 58.5938 45.6573 58.8407 45.2177 59.2802C44.7782 59.7198 44.5312 60.3159 44.5312 60.9375C44.5312 61.5591 44.7782 62.1552 45.2177 62.5948C45.6573 63.0343 46.2534 63.2812 46.875 63.2812H51.5625C52.1841 63.2812 52.7802 63.0343 53.2198 62.5948C53.6593 62.1552 53.9062 61.5591 53.9062 60.9375C53.9062 60.3159 53.6593 59.7198 53.2198 59.2802C52.7802 58.8407 52.1841 58.5938 51.5625 58.5938H46.875Z" fill="white"/>
<path fill-rule="evenodd" clip-rule="evenodd" d="M39.8438 67.9688C39.2221 67.9688 38.626 68.2157 38.1865 68.6552C37.7469 69.0948 37.5 69.6909 37.5 70.3125C37.5 70.9341 37.7469 71.5302 38.1865 71.9698C38.626 72.4093 39.2221 72.6562 39.8438 72.6562H51.5625C52.1841 72.6562 52.7802 72.4093 53.2198 71.9698C53.6593 71.5302 53.9062 70.9341 53.9062 70.3125C53.9062 69.6909 53.6593 69.0948 53.2198 68.6552C52.7802 68.2157 52.1841 67.9688 51.5625 67.9688H39.8438Z" fill="white"/>
<path fill-rule="evenodd" clip-rule="evenodd" d="M46.875 77.3438C46.2534 77.3438 45.6573 77.5907 45.2177 78.0302C44.7782 78.4698 44.5312 79.0659 44.5312 79.6875C44.5312 80.3091 44.7782 80.9052 45.2177 81.3448C45.6573 81.7843 46.2534 82.0312 46.875 82.0312H51.5625C52.1841 82.0312 52.7802 81.7843 53.2198 81.3448C53.6593 80.9052 53.9062 80.3091 53.9062 79.6875C53.9062 79.0659 53.6593 78.4698 53.2198 78.0302C52.7802 77.5907 52.1841 77.3438 51.5625 77.3438H46.875Z" fill="white"/>
<path fill-rule="evenodd" clip-rule="evenodd" d="M39.8438 86.7188C39.2221 86.7188 38.626 86.9657 38.1865 87.4052C37.7469 87.8448 37.5 88.4409 37.5 89.0625C37.5 89.6841 37.7469 90.2802 38.1865 90.7198C38.626 91.1593 39.2221 91.4062 39.8438 91.4062H51.5625C52.1841 91.4062 52.7802 91.1593 53.2198 90.7198C53.6593 90.2802 53.9062 89.6841 53.9062 89.0625C53.9062 88.4409 53.6593 87.8448 53.2198 87.4052C52.7802 86.9657 52.1841 86.7188 51.5625 86.7188H39.8438Z" fill="white"/>
<path fill-rule="evenodd" clip-rule="evenodd" d="M103.125 64.4531C101.83 64.4531 100.781 65.5025 100.781 66.7969V83.4045L97.7505 80.3741C97.311 79.9346 96.715 79.6876 96.0934 79.6875C95.4718 79.6876 94.8758 79.9346 94.4363 80.3741C93.9969 80.8137 93.75 81.4097 93.75 82.0313C93.75 82.6528 93.9969 83.2488 94.4363 83.6884L101.468 90.7196C101.907 91.159 102.503 91.4058 103.125 91.4058C103.746 91.4058 104.342 91.159 104.782 90.7196L111.813 83.6884C112.252 83.2488 112.499 82.6528 112.499 82.0313C112.499 81.4097 112.252 80.8137 111.813 80.3741C111.373 79.9347 110.777 79.6879 110.156 79.6879C109.534 79.6879 108.938 79.9347 108.499 80.3741L105.468 83.4045V66.7969C105.468 65.5025 104.419 64.4531 103.125 64.4531Z" fill="white"/>
<path fill-rule="evenodd" clip-rule="evenodd" d="M103.125 18.75C101.83 18.75 100.781 19.7993 100.781 21.0938V37.7014L97.7505 34.671C97.311 34.2315 96.715 33.9845 96.0934 33.9844C95.4718 33.9845 94.8758 34.2315 94.4363 34.671C93.9969 35.1105 93.75 35.7066 93.75 36.3281C93.75 36.9496 93.9969 37.5457 94.4363 37.9852L101.468 45.0165C101.907 45.4559 102.503 45.7027 103.125 45.7027C103.746 45.7027 104.342 45.4559 104.782 45.0165L111.813 37.9852C112.252 37.5457 112.499 36.9496 112.499 36.3281C112.499 35.7066 112.252 35.1105 111.813 34.671C111.373 34.2316 110.777 33.9847 110.156 33.9847C109.534 33.9847 108.938 34.2316 108.499 34.671L105.468 37.7014V21.0938C105.468 19.7993 104.419 18.75 103.125 18.75Z" fill="white"/>
</svg>
