<svg width="150" height="150" viewBox="0 0 150 150" fill="none" xmlns="http://www.w3.org/2000/svg">
<path fill-rule="evenodd" clip-rule="evenodd" d="M145.774 68.8105C147.248 73.337 148.289 78.0135 148.871 82.7252C149.242 85.8223 149.436 88.9105 149.436 92.0869C149.436 95.2635 149.242 98.3518 148.871 101.44C147.23 114.728 141.98 127.408 133.686 138.111L126.716 132.711C134.039 123.261 138.671 112.072 140.118 100.372C140.445 97.637 140.613 94.9017 140.613 92.087C140.613 89.2723 140.445 86.537 140.11 83.7929C139.607 79.6546 138.689 75.534 137.383 71.5546L145.774 68.8105ZM8.75297 100.372C10.2 112.072 14.8323 123.261 22.1559 132.711L15.1853 138.111C6.89117 127.408 1.64117 114.728 0 101.449L8.75297 100.372ZM141.901 35.6711L148.139 41.9182L78.8479 111.209L38.9656 71.327L45.2038 65.0887L78.848 98.7329L141.901 35.6711H141.901ZM15.1852 46.0635L22.1559 51.4635C14.8324 60.9135 10.2 72.1018 8.75297 83.8018L0 82.7251C1.64117 69.4458 6.89117 56.7663 15.1853 46.0634L15.1852 46.0635ZM83.7997 17.6525C97.0791 19.285 109.759 24.5438 120.461 32.8379L115.061 39.8085C105.603 32.485 94.4232 27.8525 82.7232 26.4055L83.7997 17.6525ZM65.0735 17.6518L66.15 26.4047C54.45 27.8516 43.2617 32.484 33.8117 39.8075L28.4117 32.837C39.1148 24.5429 51.7942 19.2929 65.0736 17.6516L65.0735 17.6518Z" fill="white"/>
</svg>
